<?xml version="1.0" encoding="UTF-8" standalone="no"?>
<svg width="33px" height="44px" viewBox="0 0 33 44" version="1.1" xmlns="http://www.w3.org/2000/svg" xmlns:xlink="http://www.w3.org/1999/xlink">
    <!-- Generator: Sketch 3.7.1 (28215) - http://www.bohemiancoding.com/sketch -->
    <title>Group 2</title>
    <desc>Created with Sketch.</desc>
    <defs></defs>
    <g id="Page-1" stroke="none" stroke-width="1" fill="none" fill-rule="evenodd">
        <g id="Open-Sans-Copy-3" transform="translate(-807.000000, -521.000000)" stroke="#FFFFFF" stroke-width="1.248">
            <g id="Group-8" transform="translate(416.000000, 109.000000)">
                <g id="Group-11" transform="translate(51.000000, 366.000000)">
                    <g id="Group" transform="translate(0.000000, 46.900561)">
                        <g id="Group-7" transform="translate(274.000000, 0.000000)">
                            <g id="Group-2" transform="translate(66.691523, 0.352370)">
                                <ellipse id="Oval-1" cx="2.912" cy="2.08" rx="2.08" ry="2.08"></ellipse>
                                <ellipse id="Oval-1-Copy-2" cx="2.08" cy="39.52" rx="2.08" ry="2.08"></ellipse>
                                <ellipse id="Oval-1-Copy" cx="28.704" cy="2.08" rx="2.08" ry="2.08"></ellipse>
                                <ellipse id="Oval-1-Copy-3" cx="28.704" cy="39.52" rx="2.08" ry="2.08"></ellipse>
                                <path d="M5.2064249,3.328 C5.2064249,3.328 15.6183529,11.0494244 19.7368428,15.788113 C23.8553327,20.5268016 21.7488709,23.9549069 19.665805,26.4025197 C17.5827391,28.8501326 4.16,38.7307662 4.16,38.7307662" id="Path-20"></path>
                                <path d="M10.1824325,3.328 C10.1824325,3.328 20.5943605,11.0494244 24.7128504,15.788113 C28.8313403,20.5268016 26.7248785,23.9549069 24.6418126,26.4025197 C22.5587467,28.8501326 9.984,38.1486555 9.984,38.1486555" id="Path-20-Copy" transform="translate(18.527423, 20.738328) scale(-1, 1) translate(-18.527423, -20.738328) "></path>
                            </g>
                        </g>
                    </g>
                </g>
            </g>
        </g>
    </g>
</svg>